<svg width="200" height="200" viewBox="0 0 200 200" fill="none" xmlns="http://www.w3.org/2000/svg">
  <path d="M156.5 89.6C149 78.8 137.3 73 125.7 73C114.1 73 105.3 78.4 100 86.5C94.7 78.4 85.9 73 74.3 73C62.7 73 51 78.8 43.5 89.6C35.1 101.6 34.6 117.2 42.2 129.5C52.5 146.1 84.9 174.2 96.8 183.5C98.3 184.7 100.2 185.2 102 185.2C103.8 185.2 105.7 184.7 107.2 183.5C119.1 174.2 151.5 146.1 161.8 129.5C169.4 117.2 168.9 101.6 156.5 89.6Z" fill="#FF6B6B" fill-opacity="0.1" stroke="#FF6B6B" stroke-width="4"/>
  <path d="M116.5 88.1C109 77.3 97.3 71.5 85.7 71.5C74.1 71.5 65.3 76.9 60 85C54.7 76.9 45.9 71.5 34.3 71.5C22.7 71.5 11 77.3 3.5 88.1C-4.9 100.1 -5.4 115.7 2.2 128C12.5 144.6 44.9 172.7 56.8 182C58.3 183.2 60.2 183.7 62 183.7C63.8 183.7 65.7 183.2 67.2 182C79.1 172.7 111.5 144.6 121.8 128C129.4 115.7 128.9 100.1 116.5 88.1Z" fill="#FF6B6B" fill-opacity="0.1" stroke="#FF6B6B" stroke-width="2" transform="translate(40, -20)"/>
  <path d="M100 50C70 50 60 100 80 120C100 140 140 130 130 90" stroke="#FF6B6B" stroke-width="8" stroke-linecap="round"/>
  <path d="M130 90C120 50 80 70 90 120C100 170 140 150 120 100" stroke="#FF6B6B" stroke-width="8" stroke-linecap="round"/>
</svg>